# xmcd
#
# Track frame offsets: 
#        150
#        12044
#        30775
#        52608
#        71982
#        89382
#        102981
#        129560
#        146300
#        163815
#        185244
#        199479
#        215731
#        235465
#        255814
#
# Disc length: 3698 seconds
#
# Revision: 0
# Processed by: cddbd v1.5.2PL0 Copyright (c) Steve Scherf et al.
# Submitted via: ExactAudioCopyFreeDBPlugin 1.0
#
DISCID=d00e700f
DTITLE=Brother Ali - All The Beauty In This Whole Life
DYEAR=2017
DGENRE=Hip-Hop
TTITLE0=Pen To Paper (feat. Amir Sulaiman)
TTITLE1=Own Light (What Hearts Are For)
TTITLE2=Special Effects (feat. deM atlaS)
TTITLE3=Can't Take That Away
TTITLE4=Dear Black Son
TTITLE5=We Got This (feat. Sa-Roc)
TTITLE6=Uncle Usi Taught Me
TTITLE7=Pray For Me
TTITLE8=It Ain't Easy
TTITLE9=Never Learn
TTITLE10=Trouble
TTITLE11=Before They Called You White
TTITLE12=The Bitten Apple (feat. Idris Philips)
TTITLE13=Out Of Here
TTITLE14=All The Beauty In This Whole Life
EXTD=
EXTT0=
EXTT1=
EXTT2=
EXTT3=
EXTT4=
EXTT5=
EXTT6=
EXTT7=
EXTT8=
EXTT9=
EXTT10=
EXTT11=
EXTT12=
EXTT13=
EXTT14=
PLAYORDER=
